<?xml version="1.0" encoding="UTF-8" standalone="no"?>
<!-- Created with Inkscape (http://www.inkscape.org/) -->

<svg
   xmlns:dc="http://purl.org/dc/elements/1.1/"
   xmlns:cc="http://creativecommons.org/ns#"
   xmlns:rdf="http://www.w3.org/1999/02/22-rdf-syntax-ns#"
   xmlns:svg="http://www.w3.org/2000/svg"
   xmlns="http://www.w3.org/2000/svg"
   xmlns:sodipodi="http://sodipodi.sourceforge.net/DTD/sodipodi-0.dtd"
   xmlns:inkscape="http://www.inkscape.org/namespaces/inkscape"
   width="210mm"
   height="297mm"
   viewBox="0 0 210 297"
   version="1.1"
   id="svg8"
   inkscape:version="0.92.4 (5da689c313, 2019-01-14)"
   sodipodi:docname="nave4.svg">
  <defs
     id="defs2" />
  <sodipodi:namedview
     id="base"
     pagecolor="#ffffff"
     bordercolor="#666666"
     borderopacity="1.0"
     inkscape:pageopacity="0.0"
     inkscape:pageshadow="2"
     inkscape:zoom="2.131516"
     inkscape:cx="6.6620879"
     inkscape:cy="1096.3929"
     inkscape:document-units="mm"
     inkscape:current-layer="layer1"
     showgrid="false"
     inkscape:window-width="1610"
     inkscape:window-height="986"
     inkscape:window-x="70"
     inkscape:window-y="27"
     inkscape:window-maximized="1" />
  <metadata
     id="metadata5">
    <rdf:RDF>
      <cc:Work
         rdf:about="">
        <dc:format>image/svg+xml</dc:format>
        <dc:type
           rdf:resource="http://purl.org/dc/dcmitype/StillImage" />
        <dc:title />
      </cc:Work>
    </rdf:RDF>
  </metadata>
  <g
     inkscape:label="Ebene 1"
     inkscape:groupmode="layer"
     id="layer1">
    <path
       style="fill:#ececec;stroke:#000000;stroke-width:0.10698415px;stroke-linecap:butt;stroke-linejoin:miter;stroke-opacity:1"
       d="M -1.4730454,2.0686797 -0.81597741,4.0715294 -0.44518887,5.2054181 0,7.0069236 0.44518887,5.2054181 0.81597741,4.0715294 1.4730454,2.0686797 Z"
       id="path3733"
       inkscape:connector-curvature="0"
       sodipodi:nodetypes="cccccccc" />
    <path
       style="fill:#999999;stroke:#000000;stroke-width:0.10698415px;stroke-linecap:butt;stroke-linejoin:miter;stroke-opacity:1"
       d="M 4.5076889,-0.35184536 1.4200757,2.5773405 1.4200096,2.8634619 H -1.4200757 V 2.5773405 l -3.0876132,-2.92918586 z"
       id="path3731"
       inkscape:connector-curvature="0"
       sodipodi:nodetypes="ccccccc" />
    <path
       style="fill:#e6e6e6;stroke:#000000;stroke-width:0.10698415px;stroke-linecap:butt;stroke-linejoin:miter;stroke-opacity:1"
       d="M -6.4218797,1.3692718 -6.18857,0.04463555 -5.7648117,-1.4283598 -4.8748383,-3.1026997 -4.153883,-4.1306178 -3.2214529,-4.9677875 -2.22554,-5.5400303 -1.0598002,-5.9215256 0,-6.0698847 1.0598002,-5.9215256 2.22554,-5.5400303 3.2214529,-4.9677875 4.153883,-4.1306178 4.8748383,-3.1026997 5.7648117,-1.4283598 6.18857,0.04463555 6.4218797,1.3692718 3.8150381,0.76523742 2.310049,0.32016056 0,-0.13551512 -2.310049,0.32016056 -3.8150381,0.76523742 Z"
       id="path3727"
       inkscape:connector-curvature="0"
       sodipodi:nodetypes="ccccccccccccccccccccccc" />
    <path
       style="fill:#999999;stroke:#000000;stroke-width:0.10698415px;stroke-linecap:butt;stroke-linejoin:miter;stroke-opacity:1"
       d="m -1.7168682,-4.4273359 1.03877399,-0.1907479 h 1.35618842 l 1.03877399,0.1907479 0.2434185,1.0809028 0.583072,0.9749324 -1.3990494,-0.1801506 h -2.2886186 l -1.3990494,0.1801506 0.583072,-0.9749324 z"
       id="path3729"
       inkscape:connector-curvature="0"
       sodipodi:nodetypes="ccccccccccc" />
    <path
       style="fill:#4d4d4d;stroke:#000000;stroke-width:0.10698415px;stroke-linecap:butt;stroke-linejoin:miter;stroke-opacity:1"
       d="m -0.23209665,-1.2861112 h 0.4641933 l 0.0473089,1.91078458 h -0.5588111 z"
       id="path3735"
       inkscape:connector-curvature="0"
       sodipodi:nodetypes="ccccc" />
    <path
       style="fill:#4d4d4d;stroke:#000000;stroke-width:0.10698415px;stroke-linecap:butt;stroke-linejoin:miter;stroke-opacity:1"
       d="m 1.9099201,-0.9489148 0.1582234,0.89191992 0.00696,0.8710381 L 2.5327257,0.92440356 2.4409877,0.00508167 2.134717,-0.91894198 Z"
       id="path3737"
       inkscape:connector-curvature="0"
       sodipodi:nodetypes="ccccccc" />
    <path
       style="fill:#4d4d4d;stroke:#000000;stroke-width:0.10698415px;stroke-linecap:butt;stroke-linejoin:miter;stroke-opacity:1"
       d="M 3.9882397,1.3078458 4.4334467,1.4277387 4.3610839,0.30995477 4.0639241,-0.51762909 3.8365548,-0.57425177 4.0613529,0.42984765 Z"
       id="path3739"
       inkscape:connector-curvature="0"
       sodipodi:nodetypes="ccccccc" />
    <path
       style="fill:#4d4d4d;stroke:#000000;stroke-width:0.10698415px;stroke-linecap:butt;stroke-linejoin:miter;stroke-opacity:1"
       d="M 5.7698208,1.7636505 6.211924,1.8535697 6.174457,0.95437637 5.9637711,0.119568 5.6724073,0.0401966 5.7997928,0.92440315 Z"
       id="path3741"
       inkscape:connector-curvature="0"
       sodipodi:nodetypes="ccccccc" />
    <path
       style="fill:#4d4d4d;stroke:#000000;stroke-width:0.10698415px;stroke-linecap:butt;stroke-linejoin:miter;stroke-opacity:1"
       d="m -1.9099329,-0.94909473 -0.1582236,0.89191992 -0.00696,0.87103809 -0.4576222,0.11036034 0.091738,-0.91932188 0.3062709,-0.92402366 z"
       id="path3737-3"
       inkscape:connector-curvature="0"
       sodipodi:nodetypes="ccccccc" />
    <path
       style="fill:#4d4d4d;stroke:#000000;stroke-width:0.10698415px;stroke-linecap:butt;stroke-linejoin:miter;stroke-opacity:1"
       d="m -3.9882528,1.3076659 -0.4452068,0.1198929 0.072363,-1.11778396 0.2971597,-0.82758386 0.2273695,-0.0566227 -0.2247982,1.00409943 z"
       id="path3739-6"
       inkscape:connector-curvature="0"
       sodipodi:nodetypes="ccccccc" />
    <path
       style="fill:#4d4d4d;stroke:#000000;stroke-width:0.10698415px;stroke-linecap:butt;stroke-linejoin:miter;stroke-opacity:1"
       d="M -5.7698337,1.7634705 -6.211937,1.8533898 -6.1744699,0.95419644 -5.963784,0.11938806 -5.6724202,0.04001667 -5.7998057,0.92422322 Z"
       id="path3741-7"
       inkscape:connector-curvature="0"
       sodipodi:nodetypes="ccccccc" />
  </g>
</svg>
