<?xml version="1.0" encoding="UTF-8" standalone="no"?>
<!-- Created with Inkscape (http://www.inkscape.org/) -->

<svg
   xmlns:dc="http://purl.org/dc/elements/1.1/"
   xmlns:cc="http://creativecommons.org/ns#"
   xmlns:rdf="http://www.w3.org/1999/02/22-rdf-syntax-ns#"
   xmlns:svg="http://www.w3.org/2000/svg"
   xmlns="http://www.w3.org/2000/svg"
   xmlns:sodipodi="http://sodipodi.sourceforge.net/DTD/sodipodi-0.dtd"
   xmlns:inkscape="http://www.inkscape.org/namespaces/inkscape"
   width="210mm"
   height="297mm"
   viewBox="0 0 210 297"
   version="1.1"
   id="svg8"
   inkscape:version="0.92.4 (5da689c313, 2019-01-14)"
   sodipodi:docname="nave3.svg">
  <defs
     id="defs2" />
  <sodipodi:namedview
     id="base"
     pagecolor="#ffffff"
     bordercolor="#666666"
     borderopacity="1.0"
     inkscape:pageopacity="0.0"
     inkscape:pageshadow="2"
     inkscape:zoom="10.095617"
     inkscape:cx="-25.18924"
     inkscape:cy="1125.0762"
     inkscape:document-units="mm"
     inkscape:current-layer="layer1"
     showgrid="false"
     inkscape:window-width="1610"
     inkscape:window-height="986"
     inkscape:window-x="70"
     inkscape:window-y="27"
     inkscape:window-maximized="1" />
  <metadata
     id="metadata5">
    <rdf:RDF>
      <cc:Work
         rdf:about="">
        <dc:format>image/svg+xml</dc:format>
        <dc:type
           rdf:resource="http://purl.org/dc/dcmitype/StillImage" />
        <dc:title />
      </cc:Work>
    </rdf:RDF>
  </metadata>
  <g
     inkscape:label="Ebene 1"
     inkscape:groupmode="layer"
     id="layer1">
    <path
       style="fill:#b3b3b3;stroke:#000000;stroke-width:0.06138562px;stroke-linecap:butt;stroke-linejoin:miter;stroke-opacity:1"
       d="M -2.6550897,-0.35104958 -1.9254225,0.91357838 -1.3537531,1.9838344 -2.1465358e-4,4.0715694 1.3533238,1.9838344 1.9249932,0.91357838 2.6546604,-0.35104958 Z"
       id="path29"
       inkscape:connector-curvature="0"
       sodipodi:nodetypes="cccccccc" />
    <path
       style="fill:#e6e6e6;stroke:#000000;stroke-width:0.06138562px;stroke-linecap:butt;stroke-linejoin:miter;stroke-opacity:1"
       d="M -4.3332083,-1.6037156 -2.1465358e-4,-3.4277436 4.332779,-1.6037156 v 0.85147102 L 2.0465657,0.29341838 -2.1465358e-4,0.82855238 -2.046995,0.29341838 -4.3332083,-0.75224458 Z"
       id="path25"
       inkscape:connector-curvature="0"
       sodipodi:nodetypes="ccccccccc" />
    <path
       style="fill:#999999;stroke:#000000;stroke-width:0.06138562px;stroke-linecap:butt;stroke-linejoin:miter;stroke-opacity:1"
       d="M -2.1465358e-4,7.9548084 0.20698579,5.2915834 0.88972159,3.3701694 1.1111068,1.0747204 1.1667888,-0.20720562 1.0981138,-1.6036166 0.91946715,-2.5318726 0.52690851,-3.4604436 -2.1515358e-4,-3.8343446 -0.52733882,-3.4604436 l -0.39255864,0.928571 -0.17864664,0.928256 -0.068675,1.39641098 0.055682,1.28192602 0.22133625,2.295449 0.68280147,1.921414 z"
       id="path27"
       inkscape:connector-curvature="0"
       sodipodi:nodetypes="ccccccccccccccccc" />
    <path
       style="fill:#e6e6e6;stroke:#000000;stroke-width:0.06138562px;stroke-linecap:butt;stroke-linejoin:miter;stroke-opacity:1"
       d="M -2.1465358e-4,2.9080574 0.36914312,2.7256444 0.72202829,2.2635324 0.928748,1.4487554 0.90438709,0.76774838 0.63688111,0.07458038 0.34779833,-0.34662358 l -0.34801298358,-0.126034 -0.34801297642,0.126034 -0.28908279,0.42120396 -0.26750598,0.693168 -0.0243609,0.68100702 0.20671972,0.814777 0.35288516,0.462112 z"
       id="path33"
       inkscape:connector-curvature="0"
       sodipodi:nodetypes="ccccccccccccccc" />
    <path
       style="fill:#999999;stroke:#000000;stroke-width:0.06138562px;stroke-linecap:butt;stroke-linejoin:miter;stroke-opacity:1"
       d="M 4.8840271,3.1510634 5.149213,0.73105538 5.5262271,-0.29045458 5.7329468,-1.2998056 l -0.012064,-0.960707 -0.2310806,-1.130959 -0.2582256,-0.681007 -0.347549,-0.376986 -0.3475489,0.376986 -0.2582257,0.681007 -0.2310806,1.130959 -0.012064,0.960707 0.2067197,1.00935102 0.377014,1.02150996 z"
       id="path35"
       inkscape:connector-curvature="0"
       sodipodi:nodetypes="ccccccccccccccc" />
    <path
       style="fill:#999999;stroke:#000000;stroke-width:0.06138562px;stroke-linecap:butt;stroke-linejoin:miter;stroke-opacity:1"
       d="m -4.8845861,3.1509744 0.2651859,-2.42000702 0.377014,-1.02151096 0.2067197,-1.00935002 -0.012064,-0.960708 -0.2310806,-1.130958 -0.2582257,-0.681008 -0.3475489,-0.376986 -0.347549,0.376986 -0.2582256,0.681008 -0.2310806,1.130958 -0.012064,0.960708 0.2067197,1.00935002 0.3770141,1.02151096 z"
       id="path35-6"
       inkscape:connector-curvature="0"
       sodipodi:nodetypes="ccccccccccccccc" />
  </g>
</svg>
